<svg width="26" height="24" viewBox="0 0 26 24" fill="none" xmlns="http://www.w3.org/2000/svg">
<path d="M8.71188 22.0317C8.71188 22.3221 8.62578 22.6059 8.46448 22.8473C8.30317 23.0887 8.0739 23.2769 7.80566 23.388C7.53742 23.4991 7.24225 23.5282 6.95749 23.4715C6.67272 23.4149 6.41115 23.2751 6.20585 23.0698C6.00054 22.8645 5.86073 22.6029 5.80409 22.3181C5.74744 22.0333 5.77652 21.7382 5.88762 21.4699C5.99873 21.2017 6.18689 20.9724 6.4283 20.8111C6.66971 20.6498 6.95354 20.5637 7.24388 20.5637C7.63322 20.5637 8.00661 20.7184 8.28191 20.9937C8.55722 21.269 8.71188 21.6424 8.71188 22.0317Z" fill="#44117C"/>
<path d="M22.4409 22.0317C22.4409 22.3221 22.3548 22.6059 22.1935 22.8473C22.0322 23.0887 21.8029 23.2769 21.5347 23.388C21.2664 23.4991 20.9713 23.5282 20.6865 23.4715C20.4017 23.4149 20.1402 23.2751 19.9349 23.0698C19.7295 22.8645 19.5897 22.6029 19.5331 22.3181C19.4764 22.0333 19.5055 21.7382 19.6166 21.4699C19.7277 21.2017 19.9159 20.9724 20.1573 20.8111C20.3987 20.6498 20.6825 20.5637 20.9729 20.5637C21.3622 20.5637 21.7356 20.7184 22.0109 20.9937C22.2862 21.269 22.4409 21.6424 22.4409 22.0317Z" fill="#44117C"/>
<path d="M25.823 4.18373C25.8023 4.11369 25.7608 4.0516 25.704 4.0057C25.6472 3.9598 25.5778 3.93226 25.505 3.92673L5.58502 2.00073C5.49165 1.99122 5.4017 1.9604 5.32212 1.91064C5.24254 1.86088 5.17545 1.79351 5.12602 1.71373C4.91966 1.30829 4.6695 0.926675 4.38002 0.575727C3.90902 0.000726581 3.02202 0.0187268 1.39502 0.00672679C1.2716 -0.00852511 1.14636 0.00222673 1.02735 0.0382905C0.908335 0.0743544 0.79819 0.134931 0.703999 0.216125C0.609807 0.297318 0.533654 0.39733 0.48044 0.509725C0.427226 0.62212 0.398128 0.74441 0.39502 0.868727C0.396171 0.989543 0.422359 1.10881 0.471931 1.21899C0.521503 1.32918 0.593382 1.42789 0.683029 1.50889C0.772676 1.58989 0.878144 1.65142 0.992774 1.68961C1.1074 1.72779 1.22871 1.74179 1.34902 1.73073C1.88154 1.71718 2.4141 1.75604 2.93902 1.84673C3.22602 1.93273 3.45902 2.40373 3.54502 2.81273C3.54461 2.81598 3.54494 2.81929 3.54598 2.82241C3.54702 2.82552 3.54874 2.82836 3.55102 2.83073C3.56302 2.90373 3.67302 3.45473 3.67302 3.46073L6.12302 16.4047C6.23073 17.1956 6.53577 17.9467 7.01002 18.5887C7.24175 18.9027 7.54539 19.1566 7.89546 19.329C8.24554 19.5014 8.63186 19.5874 9.02202 19.5797H23.493C23.7173 19.5832 23.9343 19.4998 24.0985 19.3469C24.2627 19.1941 24.3614 18.9837 24.374 18.7597C24.3796 18.6441 24.3615 18.5286 24.321 18.4201C24.2804 18.3117 24.2182 18.2127 24.1381 18.1291C24.058 18.0456 23.9617 17.9792 23.8551 17.9341C23.7485 17.889 23.6338 17.8661 23.518 17.8667H9.01002C8.82486 17.8782 8.64256 17.8168 8.50202 17.6957C8.1027 17.2555 7.85706 16.6975 7.80202 16.1057L7.53902 14.6557C7.53797 14.6477 7.53981 14.6396 7.54421 14.6328C7.5486 14.626 7.55527 14.621 7.56302 14.6187L24.545 11.7437C24.6232 11.7315 24.6951 11.6936 24.7494 11.636C24.8037 11.5785 24.8373 11.5045 24.845 11.4257L25.824 4.34273C25.8359 4.29036 25.8356 4.23594 25.823 4.18373Z" fill="#44117C"/>
</svg>
