<svg width="182" height="44" viewBox="0 0 182 44" fill="none" xmlns="http://www.w3.org/2000/svg">
<path d="M161.685 38.9063C161.685 41.2781 159.782 43.1813 157.41 43.1813C155.038 43.1813 153.116 41.2781 153.116 38.9063C153.116 36.5344 155.048 34.6125 157.41 34.6125C159.791 34.6125 161.685 36.5344 161.685 38.9063ZM137.882 34.6125C135.51 34.6125 133.607 36.5438 133.607 38.9063C133.607 41.2688 135.51 43.1813 137.882 43.1813C140.254 43.1813 142.176 41.2781 142.176 38.9063C142.176 36.5344 140.254 34.6125 137.882 34.6125ZM165.229 9.3C136.898 9.3 129.679 8.1 122.001 0C125.226 4.84688 126.998 13.9594 156.979 13.5188C188.226 13.05 169.166 21.5906 163.616 31.2281C181.119 15.6 193.56 9.3 165.229 9.3Z" fill="#44117C"/>
<path d="M8.48 26.3374C8.48 28.1934 7.968 29.6974 6.944 30.8494C6 31.9214 4.752 32.4574 3.2 32.4574C2.192 32.4574 1.208 32.2014 0.248 31.6894V29.0494C1.08 29.5134 1.896 29.7454 2.696 29.7454C3.576 29.7454 4.256 29.4574 4.736 28.8814C5.232 28.3214 5.48 27.5374 5.48 26.5294V18.7774L8.48 17.1694V26.3374ZM24.2084 24.9214V27.8254H21.2564C21.1444 29.2654 20.5044 30.4174 19.3364 31.2814C18.3764 31.9854 17.2564 32.3374 15.9764 32.3374C14.9684 32.3374 13.9844 32.0654 13.0244 31.5214V28.9054C13.8884 29.4014 14.7524 29.6494 15.6164 29.6494C16.2884 29.6494 16.8804 29.4654 17.3924 29.0974C17.9204 28.7294 18.2084 28.2894 18.2564 27.7774C18.1284 27.7614 17.9284 27.7454 17.6564 27.7294C17.3844 27.6974 17.1764 27.6734 17.0324 27.6574C15.3844 27.4814 14.1124 26.8334 13.2164 25.7134C12.4644 24.7694 12.0884 23.6254 12.0884 22.2814C12.0884 20.5214 12.5684 19.1294 13.5284 18.1054C14.3764 17.2094 15.4964 16.7614 16.8884 16.7614C18.3124 16.7614 19.4244 17.2174 20.2244 18.1294C20.9124 18.9134 21.2564 19.9374 21.2564 21.2014V24.9214H24.2084ZM18.2564 21.1534C18.2564 20.0974 17.8004 19.5694 16.8884 19.5694C15.6724 19.5694 15.0644 20.4414 15.0644 22.1854C15.0644 23.7374 15.7684 24.6014 17.1764 24.7774C17.4004 24.8254 17.7604 24.8654 18.2564 24.8974V21.1534ZM25.0522 15.0574C24.5722 15.0574 24.1882 14.9134 23.9002 14.6254C23.6122 14.3374 23.4682 13.9454 23.4682 13.4494C23.4682 12.9854 23.6122 12.6094 23.9002 12.3214C24.1882 12.0334 24.5722 11.8894 25.0522 11.8894C25.5322 11.8894 25.9082 12.0334 26.1802 12.3214C26.4682 12.5934 26.6122 12.9694 26.6122 13.4494C26.6122 14.5214 26.0922 15.0574 25.0522 15.0574ZM28.7242 15.0574C28.2442 15.0574 27.8602 14.9134 27.5722 14.6254C27.2842 14.3214 27.1402 13.9294 27.1402 13.4494C27.1402 12.9854 27.2842 12.6094 27.5722 12.3214C27.8762 12.0334 28.2602 11.8894 28.7242 11.8894C29.2042 11.8894 29.5802 12.0334 29.8522 12.3214C30.1402 12.5934 30.2842 12.9694 30.2842 13.4494C30.2842 14.5214 29.7642 15.0574 28.7242 15.0574ZM31.3162 24.9214H33.4762V27.8254H31.0282C29.8602 27.8254 28.8922 27.5134 28.1242 26.8894C27.3562 27.5134 26.3882 27.8254 25.2202 27.8254H22.7722V24.9214H24.9322C25.5402 24.9214 25.9722 24.7934 26.2282 24.5374C26.4842 24.2654 26.6122 23.8174 26.6122 23.1934V18.7534L29.6362 17.1694V23.1934C29.6362 23.8174 29.7642 24.2654 30.0202 24.5374C30.2762 24.7934 30.7082 24.9214 31.3162 24.9214ZM32.03 27.8254V24.9214H34.574C35.182 24.9214 35.614 24.7934 35.87 24.5374C36.142 24.2654 36.278 23.8174 36.278 23.1934V20.0254L39.302 18.4414V23.1934C39.302 23.8174 39.43 24.2654 39.686 24.5374C39.942 24.7934 40.374 24.9214 40.982 24.9214H42.614C43.222 24.9214 43.654 24.7934 43.91 24.5374C44.166 24.2654 44.294 23.8174 44.294 23.1934V19.4014L47.318 17.7934V23.1934C47.318 23.8174 47.446 24.2654 47.702 24.5374C47.974 24.7934 48.414 24.9214 49.022 24.9214H50.654C51.262 24.9214 51.694 24.7934 51.95 24.5374C52.206 24.2654 52.334 23.8174 52.334 23.1934V18.7534L55.358 17.1694V23.3374C55.358 24.7614 54.926 25.8814 54.062 26.6974C53.31 27.4174 52.318 27.7934 51.086 27.8254H48.71C47.526 27.8254 46.558 27.4734 45.806 26.7694C45.118 27.4574 44.206 27.8094 43.07 27.8254H40.694C39.51 27.8254 38.542 27.4734 37.79 26.7694C37.038 27.4734 36.07 27.8254 34.886 27.8254H32.03ZM71.4731 24.9214H73.6331V27.8254H71.1851C70.6411 27.8254 70.1371 27.7534 69.6731 27.6094C69.4651 29.1454 68.8491 30.3614 67.8251 31.2574C66.8971 32.0574 65.7851 32.4574 64.4891 32.4574C63.4811 32.4574 62.4971 32.2014 61.5371 31.6894V29.0494C62.3691 29.5134 63.1851 29.7454 63.9851 29.7454C64.8651 29.7454 65.5451 29.4574 66.0251 28.8814C66.5211 28.3214 66.7691 27.5374 66.7691 26.5294V18.7534L68.7371 17.7214L69.7691 17.1694V17.1934L69.7931 17.1694V23.1934C69.7931 23.8174 69.9211 24.2654 70.1771 24.5374C70.4331 24.7934 70.8651 24.9214 71.4731 24.9214ZM87.8499 24.9214H89.8659V27.8254H87.8259C86.5619 27.8254 85.5459 27.6894 84.7779 27.4174C84.0259 27.1294 83.3219 26.6334 82.6659 25.9294C80.6659 27.1934 78.3619 27.8254 75.7539 27.8254H72.2019V24.9214H75.7779C78.5939 24.9214 80.8339 24.0814 82.4979 22.4014C81.4099 20.4974 80.0899 19.5454 78.5379 19.5454C77.2579 19.5454 75.8579 20.2414 74.3379 21.6334V18.9694C75.6819 17.4974 77.2019 16.7614 78.8979 16.7614C80.1459 16.7614 81.3619 17.2174 82.5459 18.1294C83.7299 19.0414 84.7779 20.3374 85.6899 22.0174V23.2174C85.4339 23.5534 85.0979 23.9294 84.6819 24.3454C85.3219 24.7294 86.3779 24.9214 87.8499 24.9214ZM81.2019 30.0094C81.6819 30.0094 82.0579 30.1454 82.3299 30.4174C82.6179 30.7054 82.7619 31.0894 82.7619 31.5694C82.7619 32.6414 82.2419 33.1774 81.2019 33.1774C80.7219 33.1774 80.3379 33.0334 80.0499 32.7454C79.7619 32.4574 79.6179 32.0654 79.6179 31.5694C79.6179 31.1054 79.7619 30.7294 80.0499 30.4414C80.3379 30.1534 80.7219 30.0094 81.2019 30.0094ZM90.7006 15.0574C90.2206 15.0574 89.8366 14.9134 89.5486 14.6254C89.2606 14.3374 89.1166 13.9454 89.1166 13.4494C89.1166 12.9854 89.2606 12.6094 89.5486 12.3214C89.8366 12.0334 90.2206 11.8894 90.7006 11.8894C91.1806 11.8894 91.5566 12.0334 91.8286 12.3214C92.1166 12.5934 92.2606 12.9694 92.2606 13.4494C92.2606 14.5214 91.7406 15.0574 90.7006 15.0574ZM94.3726 15.0574C93.8926 15.0574 93.5086 14.9134 93.2206 14.6254C92.9326 14.3214 92.7886 13.9294 92.7886 13.4494C92.7886 12.9854 92.9326 12.6094 93.2206 12.3214C93.5246 12.0334 93.9086 11.8894 94.3726 11.8894C94.8526 11.8894 95.2286 12.0334 95.5006 12.3214C95.7886 12.5934 95.9326 12.9694 95.9326 13.4494C95.9326 14.5214 95.4126 15.0574 94.3726 15.0574ZM96.9646 24.9214H99.1246V27.8254H96.6766C95.5086 27.8254 94.5406 27.5134 93.7726 26.8894C93.0046 27.5134 92.0366 27.8254 90.8686 27.8254H88.4206V24.9214H90.5806C91.1886 24.9214 91.6206 24.7934 91.8766 24.5374C92.1326 24.2654 92.2606 23.8174 92.2606 23.1934V18.7534L95.2846 17.1694V23.1934C95.2846 23.8174 95.4126 24.2654 95.6686 24.5374C95.9246 24.7934 96.3566 24.9214 96.9646 24.9214ZM101.518 21.2014C101.518 19.7614 101.966 18.6334 102.862 17.8174C103.646 17.1134 104.654 16.7614 105.886 16.7614C107.47 16.7614 108.702 17.3454 109.582 18.5134C110.334 19.4894 110.71 20.7454 110.71 22.2814C110.71 24.0574 110.238 25.4574 109.294 26.4814C108.446 27.3774 107.366 27.8254 106.054 27.8254C104.774 27.8254 103.726 27.5454 102.91 26.9854C102.142 27.5454 101.214 27.8254 100.126 27.8254H97.6784V24.9214H99.8384C100.446 24.9214 100.878 24.7934 101.134 24.5374C101.39 24.2654 101.518 23.8174 101.518 23.1934V21.2014ZM104.542 23.5774C104.542 24.4734 105.014 24.9214 105.958 24.9214C107.142 24.9214 107.734 24.0094 107.734 22.1854C107.734 20.4414 107.118 19.5694 105.886 19.5694C104.99 19.5694 104.542 20.0974 104.542 21.1534V23.5774Z" fill="#6E349D"/>
</svg>
