<svg width="211" height="166" viewBox="0 0 211 166" fill="none" xmlns="http://www.w3.org/2000/svg">
<path d="M126.493 72.5549C126.493 76.9781 122.944 80.5272 118.52 80.5272C114.097 80.5272 110.513 76.9781 110.513 72.5549C110.513 68.1317 114.115 64.5476 118.52 64.5476C122.961 64.5476 126.493 68.1317 126.493 72.5549ZM82.103 64.5476C77.6797 64.5476 74.1307 68.1492 74.1307 72.5549C74.1307 76.9606 77.6797 80.5272 82.103 80.5272C86.5262 80.5272 90.1102 76.9781 90.1102 72.5549C90.1102 68.1317 86.5262 64.5476 82.103 64.5476ZM133.101 17.3432C80.2672 17.3432 66.8052 15.1054 52.4866 0C58.5008 9.03877 61.8051 26.0324 117.716 25.2106C175.987 24.3365 140.444 40.2636 130.094 58.2362C162.735 29.0919 185.935 17.3432 133.101 17.3432Z" fill="white"/>
<path d="M16.0843 141.791C16.0843 145.252 15.1295 148.057 13.2199 150.205C11.4595 152.204 9.13211 153.204 6.23784 153.204C4.35805 153.204 2.52303 152.727 0.732757 151.772V146.849C2.28432 147.714 3.80605 148.146 5.29795 148.146C6.93903 148.146 8.20714 147.609 9.10227 146.535C10.0272 145.491 10.4897 144.029 10.4897 142.149V127.693L16.0843 124.694V141.791ZM45.4157 139.15V144.566H39.9107C39.7018 147.251 38.5083 149.4 36.3301 151.011C34.5398 152.324 32.4512 152.98 30.0642 152.98C28.1844 152.98 26.3494 152.473 24.5591 151.458V146.58C26.1703 147.505 27.7816 147.967 29.3928 147.967C30.646 147.967 31.75 147.624 32.7048 146.938C33.6895 146.252 34.2265 145.431 34.3161 144.476C34.0774 144.447 33.7044 144.417 33.1971 144.387C32.6899 144.327 32.302 144.282 32.0335 144.253C28.9602 143.924 26.5881 142.716 24.9171 140.627C23.5148 138.867 22.8136 136.733 22.8136 134.227C22.8136 130.945 23.7087 128.349 25.499 126.439C27.0804 124.769 29.169 123.933 31.7649 123.933C34.4205 123.933 36.4942 124.783 37.9861 126.484C39.2691 127.946 39.9107 129.856 39.9107 132.213V139.15H45.4157ZM34.3161 132.124C34.3161 130.154 33.4657 129.17 31.7649 129.17C29.4972 129.17 28.3634 130.796 28.3634 134.048C28.3634 136.942 29.6763 138.554 32.302 138.882C32.7197 138.971 33.3911 139.046 34.3161 139.106V132.124ZM46.9892 120.755C46.0941 120.755 45.378 120.487 44.8409 119.95C44.3038 119.413 44.0353 118.682 44.0353 117.757C44.0353 116.891 44.3038 116.19 44.8409 115.653C45.378 115.116 46.0941 114.847 46.9892 114.847C47.8843 114.847 48.5855 115.116 49.0928 115.653C49.6299 116.16 49.8984 116.861 49.8984 117.757C49.8984 119.756 48.9287 120.755 46.9892 120.755ZM53.837 120.755C52.9419 120.755 52.2258 120.487 51.6887 119.95C51.1516 119.383 50.8831 118.652 50.8831 117.757C50.8831 116.891 51.1516 116.19 51.6887 115.653C52.2556 115.116 52.9717 114.847 53.837 114.847C54.7321 114.847 55.4333 115.116 55.9406 115.653C56.4776 116.16 56.7462 116.861 56.7462 117.757C56.7462 119.756 55.7765 120.755 53.837 120.755ZM58.6707 139.15H62.6988V144.566H58.1336C55.9555 144.566 54.1503 143.984 52.7181 142.82C51.2859 143.984 49.4807 144.566 47.3025 144.566H42.7373V139.15H46.7654C47.8993 139.15 48.7049 138.912 49.1823 138.434C49.6597 137.927 49.8984 137.092 49.8984 135.928V127.648L55.5378 124.694V135.928C55.5378 137.092 55.7765 137.927 56.2539 138.434C56.7313 138.912 57.5369 139.15 58.6707 139.15ZM60.0019 144.566V139.15H64.7461C65.8799 139.15 66.6856 138.912 67.163 138.434C67.6702 137.927 67.9238 137.092 67.9238 135.928V130.02L73.5632 127.066V135.928C73.5632 137.092 73.8019 137.927 74.2793 138.434C74.7567 138.912 75.5623 139.15 76.6962 139.15H79.7396C80.8735 139.15 81.6791 138.912 82.1565 138.434C82.6339 137.927 82.8726 137.092 82.8726 135.928V128.856L88.5119 125.858V135.928C88.5119 137.092 88.7506 137.927 89.2281 138.434C89.7353 138.912 90.5558 139.15 91.6897 139.15H94.7331C95.867 139.15 96.6726 138.912 97.15 138.434C97.6274 137.927 97.8661 137.092 97.8661 135.928V127.648L103.505 124.694V136.196C103.505 138.852 102.7 140.941 101.089 142.462C99.6862 143.805 97.8363 144.506 95.5388 144.566H91.1078C88.8998 144.566 87.0946 143.909 85.6923 142.597C84.4092 143.88 82.7085 144.536 80.59 144.566H76.1591C73.9511 144.566 72.1459 143.909 70.7435 142.597C69.3411 143.909 67.5359 144.566 65.3279 144.566H60.0019ZM133.558 139.15H137.586V144.566H133.021C132.006 144.566 131.066 144.432 130.201 144.163C129.813 147.028 128.664 149.295 126.755 150.966C125.024 152.458 122.951 153.204 120.534 153.204C118.654 153.204 116.819 152.727 115.029 151.772V146.849C116.58 147.714 118.102 148.146 119.594 148.146C121.235 148.146 122.503 147.609 123.398 146.535C124.323 145.491 124.786 144.029 124.786 142.149V127.648L128.456 125.723L130.38 124.694V124.739L130.425 124.694V135.928C130.425 137.092 130.664 137.927 131.141 138.434C131.618 138.912 132.424 139.15 133.558 139.15ZM164.098 139.15H167.858V144.566H164.054C161.696 144.566 159.802 144.312 158.37 143.805C156.967 143.268 155.654 142.343 154.431 141.03C150.701 143.387 146.405 144.566 141.541 144.566H134.917V139.15H141.586C146.837 139.15 151.015 137.584 154.118 134.451C152.089 130.9 149.627 129.125 146.733 129.125C144.346 129.125 141.735 130.423 138.9 133.019V128.051C141.407 125.306 144.241 123.933 147.404 123.933C149.731 123.933 151.999 124.783 154.207 126.484C156.415 128.185 158.37 130.602 160.07 133.735V135.973C159.593 136.599 158.966 137.3 158.191 138.076C159.384 138.792 161.353 139.15 164.098 139.15ZM151.701 148.639C152.596 148.639 153.297 148.892 153.804 149.4C154.341 149.937 154.61 150.653 154.61 151.548C154.61 153.547 153.64 154.547 151.701 154.547C150.806 154.547 150.09 154.278 149.552 153.741C149.015 153.204 148.747 152.473 148.747 151.548C148.747 150.683 149.015 149.981 149.552 149.444C150.09 148.907 150.806 148.639 151.701 148.639ZM169.415 120.755C168.52 120.755 167.803 120.487 167.266 119.95C166.729 119.413 166.461 118.682 166.461 117.757C166.461 116.891 166.729 116.19 167.266 115.653C167.803 115.116 168.52 114.847 169.415 114.847C170.31 114.847 171.011 115.116 171.518 115.653C172.055 116.16 172.324 116.861 172.324 117.757C172.324 119.756 171.354 120.755 169.415 120.755ZM176.262 120.755C175.367 120.755 174.651 120.487 174.114 119.95C173.577 119.383 173.309 118.652 173.309 117.757C173.309 116.891 173.577 116.19 174.114 115.653C174.681 115.116 175.397 114.847 176.262 114.847C177.158 114.847 177.859 115.116 178.366 115.653C178.903 116.16 179.172 116.861 179.172 117.757C179.172 119.756 178.202 120.755 176.262 120.755ZM181.096 139.15H185.124V144.566H180.559C178.381 144.566 176.576 143.984 175.144 142.82C173.711 143.984 171.906 144.566 169.728 144.566H165.163V139.15H169.191C170.325 139.15 171.13 138.912 171.608 138.434C172.085 137.927 172.324 137.092 172.324 135.928V127.648L177.963 124.694V135.928C177.963 137.092 178.202 137.927 178.679 138.434C179.157 138.912 179.962 139.15 181.096 139.15ZM189.588 132.213C189.588 129.528 190.424 127.424 192.095 125.902C193.557 124.589 195.437 123.933 197.734 123.933C200.688 123.933 202.986 125.022 204.627 127.2C206.029 129.02 206.73 131.363 206.73 134.227C206.73 137.539 205.85 140.15 204.09 142.06C202.508 143.73 200.494 144.566 198.047 144.566C195.66 144.566 193.706 144.044 192.184 142.999C190.752 144.044 189.022 144.566 186.993 144.566H182.427V139.15H186.455C187.589 139.15 188.395 138.912 188.872 138.434C189.35 137.927 189.588 137.092 189.588 135.928V132.213ZM195.228 136.644C195.228 138.315 196.108 139.15 197.868 139.15C200.076 139.15 201.18 137.45 201.18 134.048C201.18 130.796 200.032 129.17 197.734 129.17C196.063 129.17 195.228 130.154 195.228 132.124V136.644Z" fill="white"/>
</svg>
