<svg width="16" height="16" viewBox="0 0 16 16" fill="none" xmlns="http://www.w3.org/2000/svg">
<path d="M13.7799 7.20799C13.7799 8.46093 13.4083 9.68574 12.7122 10.7275C12.0161 11.7693 11.0267 12.5813 9.86917 13.0608C8.7116 13.5402 7.43784 13.6657 6.20897 13.4213C4.9801 13.1768 3.85131 12.5735 2.96535 11.6875C2.07938 10.8015 1.47603 9.67275 1.23159 8.44388C0.987154 7.21501 1.11261 5.94126 1.59209 4.78369C2.07157 3.62612 2.88354 2.63672 3.92533 1.94063C4.96711 1.24453 6.19192 0.872986 7.44487 0.872986C9.12501 0.872986 10.7363 1.54042 11.9244 2.72846C13.1124 3.91651 13.7799 5.52784 13.7799 7.20799Z" stroke="#44117C" stroke-linecap="round" stroke-linejoin="round"/>
<path d="M15.3639 15.127L11.9189 11.682" stroke="#44117C" stroke-linecap="round" stroke-linejoin="round"/>
</svg>
