<svg width="19" height="19" viewBox="0 0 19 19" fill="none" xmlns="http://www.w3.org/2000/svg">
<path d="M0.980088 0.0412096L18.5971 7.72021C18.6681 7.75257 18.7281 7.805 18.7696 7.87102C18.8112 7.93705 18.8326 8.01379 18.8311 8.09181C18.8296 8.16982 18.8053 8.2457 18.7613 8.31009C18.7172 8.37448 18.6553 8.42458 18.5831 8.45421L13.8191 11.1472C13.6816 11.2248 13.5236 11.2582 13.3665 11.2429C13.2094 11.2275 13.0609 11.164 12.9411 11.0612L3.54109 2.96121C3.47909 2.90821 3.33009 2.80721 3.27209 2.86121C3.21409 2.91521 3.30609 3.06721 3.35809 3.13021L11.4881 12.2872C11.5985 12.4111 11.6657 12.5675 11.6796 12.7329C11.6935 12.8982 11.6533 13.0637 11.5651 13.2042L8.45009 18.2042C8.4161 18.2725 8.36352 18.3298 8.29839 18.3696C8.23325 18.4093 8.15823 18.4298 8.08194 18.4288C8.00566 18.4277 7.93122 18.4051 7.8672 18.3636C7.80318 18.3222 7.75219 18.2634 7.72009 18.1942L0.438087 0.57421C0.400659 0.498691 0.388042 0.413279 0.402038 0.330164C0.416033 0.247049 0.455925 0.170479 0.51602 0.111382C0.576115 0.0522845 0.653342 0.0136801 0.73668 0.00107846C0.820017 -0.0115231 0.905206 0.00252226 0.980088 0.0412096Z" fill="#44117C"/>
</svg>
