<svg width="87" height="87" viewBox="0 0 87 87" fill="none" xmlns="http://www.w3.org/2000/svg">
<path d="M42.9564 86.9001C40.3004 85.8791 37.6514 84.8441 34.9884 83.8421C28.753 81.4948 22.515 79.1558 16.2744 76.8251C14.8894 76.3061 14.6094 75.9021 14.6094 74.4391C14.6094 66.2098 14.6144 57.9801 14.6244 49.7501C14.6468 49.624 14.6437 49.4948 14.6155 49.3699C14.5872 49.2451 14.5342 49.1271 14.4597 49.0231C14.3851 48.919 14.2905 48.8309 14.1814 48.7639C14.0723 48.6969 13.9509 48.6524 13.8244 48.6331C11.1054 47.7741 8.40736 46.8521 5.70336 45.9461C4.00336 45.3751 3.64536 44.3941 4.57636 42.8391C6.62136 39.4221 8.67036 36.0081 10.9064 32.2791C10.6295 32.177 10.3694 32.0345 10.1344 31.8561C7.06369 28.8081 4.00236 25.7504 0.950359 22.6831C-0.576641 21.1531 -0.249641 19.8701 1.83136 19.2201C10.7507 16.4361 19.6734 13.6581 28.5994 10.8861C28.8658 10.82 29.1124 10.6907 29.3183 10.5091C29.5242 10.3276 29.6834 10.0991 29.7824 9.84309C31.1842 6.8006 33.4567 4.24212 36.3126 2.49115C39.1685 0.740187 42.4794 -0.124628 45.8268 0.00606321C49.1741 0.136755 52.4076 1.25708 55.1182 3.22539C57.8289 5.19369 59.895 7.92157 61.0554 11.0641C61.1345 11.3411 61.2865 11.5919 61.4954 11.7902C61.7043 11.9886 61.9626 12.1274 62.2434 12.1921C69.8574 14.5151 77.4614 16.8691 85.0734 19.2001C85.4583 19.2785 85.8223 19.4376 86.1413 19.6668C86.4604 19.8961 86.7272 20.1903 86.9244 20.5301V21.5481C86.5244 22.0141 86.1504 22.5061 85.7184 22.9401C82.8517 25.8234 79.9797 28.7004 77.1024 31.5711C76.8904 31.7831 76.6884 32.0051 76.3384 32.3711C76.625 32.5517 76.8987 32.7522 77.1574 32.9711C80.0174 35.8198 82.871 38.6748 85.7184 41.5361C86.1504 41.9711 86.5234 42.4631 86.9244 42.9281V43.9471C86.7268 44.2863 86.46 44.5802 86.1415 44.8097C85.823 45.0392 85.4597 45.1991 85.0754 45.2791C82.2154 46.1561 79.3754 47.0891 76.5064 47.9431C76.3795 47.9603 76.2575 48.0031 76.1477 48.069C76.0379 48.1348 75.9427 48.2223 75.8679 48.3262C75.793 48.4301 75.7401 48.5481 75.7123 48.673C75.6846 48.798 75.6825 48.9273 75.7064 49.0531C75.729 57.4784 75.734 65.9038 75.7214 74.3291C75.7214 75.9441 75.4394 76.3361 73.9014 76.8481C66.5374 79.2994 59.1737 81.7511 51.8104 84.2031C49.1934 85.0781 46.5894 85.9931 43.9794 86.8901L42.9564 86.9001ZM45.1994 82.8311L72.2854 73.8001V49.3121C71.8854 49.4321 71.5334 49.5291 71.1854 49.6371C65.29 51.4871 59.3947 53.3374 53.4994 55.1881C53.2725 55.3104 53.0236 55.3863 52.7672 55.4115C52.5107 55.4368 52.2518 55.4107 52.0055 55.335C51.7592 55.2593 51.5304 55.1353 51.3325 54.9703C51.1345 54.8054 50.9713 54.6027 50.8524 54.3741C49.245 52.3654 47.6384 50.3564 46.0324 48.3471C45.7954 48.0471 45.5524 47.7581 45.2044 47.3311L45.1994 82.8311ZM17.9994 50.9731C17.9994 58.2991 18.0094 65.6251 17.9824 72.9511C17.9395 73.2207 18.0012 73.4966 18.1549 73.7222C18.3087 73.9479 18.5427 74.1063 18.8094 74.1651C26.1687 76.8984 33.5207 79.6481 40.8654 82.4141C41.1354 82.5141 41.4154 82.5921 41.7004 82.6841V48.6671C40.4144 50.8051 39.2394 52.7671 38.0614 54.7191C37.2434 56.0771 36.7124 56.2751 35.1884 55.7701C32.1057 54.7481 29.0244 53.7231 25.9444 52.6951L17.9994 50.0481V50.9731ZM8.29936 43.2271L35.5584 52.3121L40.9164 43.3641L13.6664 34.2851L8.29936 43.2271ZM72.6274 34.4741C64.1734 37.3148 55.7144 40.1404 47.2504 42.9511C46.9644 43.0511 46.6854 43.1601 46.3384 43.2881C48.4644 45.9481 50.5384 48.5181 52.5774 51.1231C52.7076 51.3467 52.918 51.5124 53.1659 51.5866C53.4138 51.6609 53.6806 51.6382 53.9124 51.5231C60.4994 49.4251 67.0994 47.3661 73.6994 45.2931C76.4344 44.4341 79.1674 43.5671 81.9994 42.6741C81.7454 42.3981 81.5664 42.1891 81.3724 41.9951C78.9954 39.6131 76.5984 37.2521 74.2534 34.8401C74.1338 34.6929 73.9842 34.573 73.8144 34.4885C73.6447 34.404 73.4588 34.3568 73.2694 34.3501C73.0494 34.356 72.8318 34.3978 72.6254 34.4741H72.6274ZM31.2194 27.9211C27.3664 29.2211 23.5044 30.4961 19.6464 31.7821C19.2864 31.9021 18.9334 32.0431 18.4144 32.2341C18.7554 32.3771 18.9214 32.4601 19.0974 32.5181C27.0307 35.1608 34.964 37.7961 42.8974 40.4241C43.3236 40.5394 43.7747 40.5244 44.1924 40.3811C52.0224 37.7944 59.847 35.1921 67.6664 32.5741C67.9054 32.4941 68.1394 32.3951 68.5824 32.2261C64.9044 30.9961 61.4824 29.8371 58.0434 28.7331C57.8636 28.7169 57.6825 28.7398 57.5125 28.8002C57.3425 28.8606 57.1875 28.9571 57.0584 29.0831C55.4206 30.6941 53.4717 31.9545 51.3308 32.7876C49.1898 33.6206 46.9016 34.0088 44.6057 33.9284C42.3098 33.848 40.0543 33.3008 37.9768 32.3201C35.8994 31.3393 34.0435 29.9457 32.5224 28.2241C32.4334 28.1025 32.3182 28.0025 32.1852 27.9317C32.0522 27.8609 31.9049 27.821 31.7544 27.8151C31.5715 27.8212 31.3908 27.857 31.2194 27.9211ZM45.1334 3.38809C41.532 3.3914 38.0794 4.82478 35.5346 7.37308C32.9898 9.92138 31.5612 13.376 31.5629 16.9773C31.5645 20.5787 32.9963 24.032 35.5434 26.5779C38.0906 29.1239 41.5445 30.5541 45.1459 30.5541C48.7472 30.5541 52.2012 29.1239 54.7483 26.5779C57.2954 24.032 58.7272 20.5787 58.7289 16.9773C58.7305 13.376 57.3019 9.92138 54.7571 7.37308C52.2123 4.82478 48.7597 3.3914 45.1584 3.38809H45.1334ZM4.95936 21.8001C5.10936 21.9901 5.18336 22.1061 5.27836 22.2001C7.83636 24.7611 10.4044 27.3101 12.9454 29.8871C13.0869 30.0393 13.2757 30.1393 13.4811 30.1709C13.6866 30.2025 13.8966 30.1638 14.0774 30.0611C19.1614 28.3551 24.248 26.6574 29.3374 24.9681C29.5694 24.8911 29.7944 24.7941 30.0614 24.6911C28.4809 21.5465 27.8853 17.9984 28.3524 14.5101L4.95936 21.8001ZM59.7234 25.6801C64.2464 27.1881 68.6354 28.6641 73.0384 30.0931C73.2169 30.1208 73.3993 30.1083 73.5723 30.0564C73.7454 30.0045 73.9046 29.9145 74.0384 29.7931C76.5384 27.3361 79.0144 24.8471 81.4914 22.3631C81.6434 22.2111 81.7694 22.0331 81.9614 21.8031L62.1084 15.6861C62.2984 19.1794 61.4699 22.6527 59.7234 25.6841V25.6801ZM35.7774 76.8771C32.6034 75.6944 29.432 74.5051 26.2634 73.3091C25.9421 73.2007 25.6435 73.0343 25.3824 72.8181C25.1251 72.6127 24.9405 72.3303 24.8557 72.0122C24.7709 71.6941 24.7904 71.3573 24.9114 71.0511C25.0118 70.7229 25.2156 70.436 25.4924 70.2331C25.7692 70.0302 26.1042 69.9221 26.4474 69.9251C26.7295 69.9242 27.0093 69.9761 27.2724 70.0781C30.5277 71.2848 33.78 72.4988 37.0294 73.7201C37.3722 73.8183 37.6792 74.0141 37.9128 74.2836C38.1465 74.5531 38.2967 74.8847 38.3454 75.2381C38.3657 75.4842 38.3321 75.7317 38.2471 75.9635C38.162 76.1953 38.0275 76.4058 37.8529 76.5803C37.6782 76.7549 37.4677 76.8893 37.2358 76.9742C37.004 77.0591 36.7564 77.0925 36.5104 77.0721C36.2622 77.0222 36.0174 76.9571 35.7774 76.8771ZM31.8884 68.0301C31.5745 67.8287 31.3469 67.5175 31.25 67.1573C31.1531 66.7972 31.1939 66.4138 31.3644 66.0821C31.4932 65.7345 31.7429 65.4449 32.0677 65.2664C32.3926 65.0879 32.7709 65.0324 33.1334 65.1101C34.6274 65.5931 36.1084 66.1381 37.5494 66.7611C37.8811 66.9308 38.1384 67.2172 38.2719 67.5651C38.4053 67.9131 38.4055 68.298 38.2724 68.6461C38.143 69.0077 37.911 69.3237 37.6048 69.5555C37.2986 69.7873 36.9315 69.9247 36.5484 69.9511C34.9904 69.3201 33.4074 68.7431 31.8884 68.0301ZM26.4694 66.1771C26.0242 66.1742 25.5984 65.9949 25.2852 65.6786C24.972 65.3623 24.7969 64.9348 24.7984 64.4896C24.7998 64.0445 24.9777 63.6181 25.293 63.3038C25.6082 62.9896 26.0352 62.8131 26.4804 62.8131C26.9255 62.8131 27.3525 62.9896 27.6678 63.3038C27.983 63.6181 28.1609 64.0445 28.1623 64.4896C28.1638 64.9348 27.9887 65.3623 27.6755 65.6786C27.3623 65.9949 26.9365 66.1742 26.4914 66.1771H26.4694ZM41.8074 22.8001C40.8474 21.8431 39.8584 20.9121 38.9444 19.9121C38.7063 19.7083 38.5321 19.4402 38.4426 19.1398C38.3532 18.8395 38.3524 18.5197 38.4402 18.2189C38.5281 17.9181 38.7009 17.649 38.9379 17.444C39.1749 17.239 39.466 17.1067 39.7764 17.0631C40.4049 17.0788 41.0085 17.3121 41.4844 17.7231C42.1682 18.3289 42.8082 18.9825 43.3994 19.6791C43.7284 19.3691 43.9544 19.1661 44.1704 18.9511C46.7477 16.3764 49.324 13.8004 51.8994 11.2231C52.0594 11.0631 52.2134 10.8961 52.3834 10.7491C52.5364 10.5682 52.7256 10.4214 52.9387 10.3179C53.1519 10.2145 53.3843 10.1567 53.6211 10.1484C53.8579 10.14 54.0938 10.1812 54.3137 10.2694C54.5336 10.3576 54.7327 10.4908 54.8981 10.6604C55.0635 10.83 55.1916 11.0323 55.2743 11.2544C55.3569 11.4764 55.3922 11.7133 55.3779 11.9498C55.3636 12.1863 55.3001 12.4172 55.1913 12.6277C55.0826 12.8382 54.931 13.0236 54.7464 13.1721C54.6344 13.2991 54.5094 13.4141 54.3904 13.5341C51.295 16.6294 48.1994 19.7248 45.1034 22.8201C44.7023 23.3318 44.1154 23.6646 43.4704 23.7461C42.8133 23.6615 42.2159 23.3217 41.8074 22.8001Z" fill="white"/>
</svg>
