<svg width="93" height="64" viewBox="0 0 93 64" fill="none" xmlns="http://www.w3.org/2000/svg">
<path d="M67 54.643C67.0431 52.3939 67.9649 50.2511 69.5681 48.6731C71.1713 47.0951 73.3285 46.2074 75.578 46.2C77.8075 46.2281 79.9358 47.1345 81.501 48.7225C83.0661 50.3104 83.9416 52.4517 83.9374 54.6813C83.9332 56.9109 83.0496 59.0489 81.4784 60.6309C79.9073 62.213 77.7755 63.1114 75.546 63.131H75.536C73.2883 63.1056 71.1391 62.2046 69.5451 60.6196C67.9512 59.0346 67.0381 56.8905 67 54.643ZM70.767 54.617C70.7944 55.8776 71.3102 57.0782 72.2056 57.9659C73.1011 58.8535 74.3063 59.3587 75.567 59.375C76.7985 59.3495 77.9703 58.8398 78.8285 57.9563C79.6868 57.0728 80.1623 55.8867 80.152 54.655C80.1597 54.0452 80.0468 53.4399 79.82 52.8738C79.5931 52.3077 79.2567 51.792 78.8301 51.3563C78.4034 50.9205 77.8949 50.5733 77.3338 50.3346C76.7726 50.0958 76.1698 49.9702 75.56 49.965H75.552C74.3083 49.9718 73.1156 50.46 72.224 51.3271C71.3325 52.1943 70.8113 53.373 70.77 54.616L70.767 54.617ZM29.452 63.117C27.2087 63.0746 25.0741 62.1427 23.5178 60.5264C21.9615 58.9101 21.1111 56.7418 21.1535 54.4985C21.1959 52.2552 22.1278 50.1206 23.7441 48.5643C25.3604 47.008 27.5287 46.1576 29.772 46.2C31.9734 46.267 34.062 47.1896 35.5942 48.7718C37.1263 50.354 37.9813 52.4711 37.9776 54.6736C37.9738 56.876 37.1115 58.9903 35.574 60.5672C34.0364 62.1441 31.9447 63.0596 29.743 63.119C29.647 63.122 29.551 63.121 29.455 63.117H29.452ZM24.84 54.589C24.8444 55.8505 25.3452 57.0595 26.2341 57.9546C27.123 58.8497 28.3286 59.3589 29.59 59.372C30.8209 59.3466 31.9935 58.8426 32.859 57.967C33.7245 57.0914 34.2148 55.9131 34.226 54.682C34.2344 53.4508 33.7577 52.2658 32.8991 51.3834C32.0405 50.5011 30.8689 49.9922 29.638 49.967H29.6C28.3613 49.966 27.171 50.4484 26.2826 51.3117C25.3941 52.1749 24.8776 53.3507 24.843 54.589H24.84ZM11.64 52.242C11.3528 52.2769 11.0614 52.2458 10.788 52.151C10.5146 52.0562 10.2665 51.9002 10.0626 51.695C9.85869 51.4897 9.70435 51.2406 9.61135 50.9666C9.51835 50.6926 9.48916 50.401 9.526 50.114C9.503 49.059 9.526 48.004 9.526 46.95C9.526 45.865 9.506 44.779 9.532 43.695C9.50415 43.4353 9.53098 43.1726 9.61075 42.9238C9.69052 42.6751 9.82147 42.4458 9.99517 42.2507C10.1689 42.0555 10.3815 41.899 10.6194 41.791C10.8572 41.6829 11.115 41.6259 11.3763 41.6235C11.6375 41.6211 11.8963 41.6735 12.1361 41.7771C12.3759 41.8808 12.5913 42.0334 12.7685 42.2253C12.9458 42.4173 13.0809 42.6441 13.1652 42.8914C13.2495 43.1386 13.2811 43.4008 13.258 43.661C13.303 45.016 13.295 46.374 13.263 47.729C13.249 48.317 13.442 48.529 14.036 48.508C14.967 48.47 15.901 48.475 16.836 48.508C17.1011 48.4782 17.3695 48.5051 17.6233 48.5869C17.8772 48.6688 18.1108 48.8036 18.3086 48.9826C18.5065 49.1615 18.664 49.3804 18.7708 49.6249C18.8775 49.8693 18.9311 50.1337 18.928 50.4004C18.9248 50.6671 18.865 50.9301 18.7525 51.172C18.64 51.4139 18.4774 51.629 18.2754 51.8033C18.0734 51.9775 17.8367 52.1068 17.581 52.1826C17.3252 52.2584 17.0563 52.279 16.792 52.243C15.9193 52.2557 15.0467 52.262 14.174 52.262C13.3247 52.2613 12.4797 52.2543 11.639 52.241L11.64 52.242ZM42.774 52.25C41.032 52.25 40.139 51.594 40.164 50.343C40.188 49.127 41.064 48.5 42.751 48.499C47.263 48.499 51.7747 48.499 56.286 48.499H57.375V3.761H56.347C42.361 3.761 28.3747 3.75333 14.388 3.738C13.458 3.738 13.232 3.987 13.246 4.892C13.298 8.327 13.273 11.764 13.263 15.2C13.263 16.545 12.782 17.264 11.808 17.486C11.5602 17.5509 11.3013 17.5622 11.0488 17.5191C10.7962 17.4759 10.5558 17.3794 10.3436 17.2359C10.1314 17.0924 9.9522 16.9052 9.81811 16.6869C9.68401 16.4686 9.59806 16.2242 9.566 15.97C9.53025 15.7012 9.51487 15.4301 9.52 15.159C9.52 10.909 9.52 6.659 9.52 2.409C9.52 0.676 10.183 0.009 11.926 0.004C27.5367 0.00133333 43.1473 0 58.758 0C60.531 0 61.186 0.688 61.189 2.482C61.189 4.497 61.189 6.512 61.189 8.669H62.377C67.039 8.669 71.701 8.679 76.363 8.661C77.2374 8.63738 78.089 8.94205 78.75 9.515C82.95 13.0323 87.1653 16.5307 91.396 20.01C91.7288 20.2678 91.9948 20.6017 92.1717 20.9837C92.3487 21.3656 92.4314 21.7845 92.413 22.205C92.355 31.4883 92.2987 40.772 92.244 50.056C92.2838 50.3432 92.2573 50.6357 92.1665 50.9111C92.0758 51.1865 91.9232 51.4375 91.7205 51.6448C91.5178 51.8521 91.2704 52.0103 90.9971 52.1072C90.7239 52.2042 90.432 52.2373 90.144 52.204C89.002 52.224 87.858 52.227 86.715 52.204C86.465 52.2252 86.2133 52.196 85.9749 52.1179C85.7365 52.0399 85.5162 51.9147 85.3272 51.7497C85.1382 51.5848 84.9843 51.3835 84.8747 51.1579C84.765 50.9322 84.7019 50.6868 84.6891 50.4363C84.6763 50.1857 84.714 49.9352 84.8 49.6995C84.8861 49.4639 85.0186 49.2479 85.1898 49.0645C85.361 48.8812 85.5674 48.7341 85.7966 48.6322C86.0258 48.5302 86.2732 48.4754 86.524 48.471C87.164 48.4342 87.8055 48.4302 88.446 48.459C88.471 48.053 88.503 47.759 88.505 47.468C88.5497 39.45 88.596 31.4323 88.644 23.415C88.6618 23.166 88.6161 22.9165 88.5112 22.69C88.4062 22.4635 88.2455 22.2674 88.044 22.12C84.323 19.063 80.631 15.971 76.911 12.913C76.5989 12.6473 76.2107 12.4874 75.802 12.456C71.14 12.425 66.478 12.436 61.816 12.438C61.643 12.438 61.47 12.468 61.251 12.488V48.5C62.186 48.5 63.081 48.493 63.976 48.5C64.4266 48.4925 64.8771 48.5175 65.324 48.575C65.7443 48.6388 66.128 48.8509 66.4055 49.173C66.683 49.4951 66.8361 49.9058 66.837 50.331C66.8545 50.7714 66.7103 51.2031 66.4316 51.5446C66.1529 51.886 65.759 52.1138 65.324 52.185C64.9666 52.2353 64.6057 52.2557 64.245 52.246C59.8603 52.246 55.4753 52.246 51.09 52.246L42.774 52.25ZM0 38.63V37.73C0.221803 37.2522 0.588842 36.8567 1.04874 36.5999C1.50864 36.3431 2.0379 36.2382 2.561 36.3C9.719 36.32 16.878 36.308 24.037 36.315C24.4268 36.3116 24.8155 36.3549 25.195 36.444C25.5943 36.5381 25.9483 36.7683 26.1962 37.0952C26.444 37.4221 26.5702 37.8251 26.553 38.235C26.558 38.6456 26.4216 39.0454 26.1667 39.3674C25.9117 39.6893 25.5538 39.9137 25.153 40.003C24.7988 40.0699 24.4382 40.0967 24.078 40.083C21.89 40.083 19.702 40.083 17.514 40.083C12.514 40.083 7.514 40.0893 2.514 40.102H2.489C1.96947 40.1687 1.44255 40.0601 0.991697 39.7935C0.540848 39.5268 0.191855 39.1174 0 38.63ZM67.352 36.642C65.607 36.642 64.957 35.987 64.952 34.236C64.946 31.825 64.952 29.414 64.952 27.003C64.952 24.622 64.952 22.241 64.952 19.861C64.952 18.088 65.583 17.44 67.317 17.435C68.4597 17.435 69.6023 17.435 70.745 17.435C72.52 17.435 74.294 17.435 76.069 17.425C76.4436 17.4161 76.8163 17.4823 77.1649 17.6197C77.5136 17.7571 77.8312 17.9629 78.099 18.225C79.7163 19.7123 81.3497 21.1837 82.999 22.639C83.3348 22.9165 83.6023 23.2673 83.7811 23.6645C83.9598 24.0617 84.045 24.4947 84.03 24.93C84.012 28.03 84.03 31.138 84.02 34.242C84.013 35.98 83.338 36.642 81.611 36.642C79.235 36.642 76.8593 36.642 74.484 36.642C72.1087 36.642 69.7313 36.6427 67.352 36.642ZM68.77 21.162V32.812H80.27C80.27 30.36 80.286 27.987 80.249 25.612C80.1895 25.2971 80.0201 25.0136 79.771 24.812C78.584 23.705 77.371 22.621 76.159 21.544C75.9761 21.3504 75.7361 21.2204 75.474 21.173C74.245 21.157 73.015 21.154 71.774 21.154L68.77 21.162ZM17.047 31.547V31.4C13.381 31.4 9.715 31.409 6.047 31.4C4.503 31.394 3.547 30.382 3.973 29.1C4.23095 28.5563 4.64713 28.1032 5.167 27.8C5.55506 27.6329 5.98128 27.5744 6.4 27.631C13.6413 27.6703 20.883 27.7183 28.125 27.775C28.4845 27.7664 28.843 27.8154 29.187 27.92C29.5464 28.0521 29.8556 28.2932 30.0714 28.6096C30.2871 28.926 30.3987 29.3019 30.3904 29.6848C30.3821 30.0676 30.2545 30.4384 30.0253 30.7452C29.7961 31.052 29.4768 31.2795 29.112 31.396C28.7061 31.5017 28.2874 31.5505 27.868 31.541C25.9087 31.547 23.949 31.5493 21.989 31.548L17.047 31.547ZM26.7 22.858H10.573C10.363 22.858 10.152 22.858 9.942 22.858C8.531 22.821 7.679 22.095 7.69 20.942C7.702 19.772 8.532 19.087 9.978 19.084C13.6447 19.0773 17.3097 19.0773 20.973 19.084H24.225C26.8357 19.084 29.4463 19.0863 32.057 19.091C33.642 19.097 34.576 20.267 34.107 21.6C33.9352 22.0214 33.6282 22.3736 33.2343 22.6014C32.8404 22.8291 32.3819 22.9194 31.931 22.858C31.223 22.8633 30.515 22.8657 29.807 22.865C28.773 22.862 27.739 22.858 26.7 22.858Z" fill="white"/>
</svg>
