<svg width="84" height="83" viewBox="0 0 84 83" fill="none" xmlns="http://www.w3.org/2000/svg">
<path d="M35.848 66.2911C35.7963 65.9953 35.6304 65.7318 35.386 65.5574C35.1416 65.383 34.8385 65.3118 34.542 65.3591C24.9233 65.3884 15.3043 65.3944 5.685 65.3771C4.40222 65.4655 3.13098 65.085 2.10771 64.3064C1.08443 63.5278 0.378787 62.404 0.122 61.1441C0.0903165 61.0702 0.0493178 61.0006 0 60.9371L0 40.1071C0.624 39.0771 1.254 38.7411 2.109 38.9801C2.876 39.1951 3.28 39.8521 3.28 40.9161C3.28 46.4361 3.28 51.9564 3.28 57.4771C3.28 58.3241 3.261 59.1721 3.287 60.0181C3.27724 60.2936 3.32456 60.5682 3.42597 60.8245C3.52738 61.0809 3.68071 61.3135 3.87631 61.5078C4.07191 61.7021 4.30557 61.8539 4.56262 61.9535C4.81967 62.0532 5.09455 62.0987 5.37 62.0871C15.0467 62.0997 24.7237 62.1014 34.401 62.0921C34.5022 62.0812 34.6025 62.0628 34.701 62.0371C33.651 54.1841 35.585 47.1761 40.979 41.3171C46.356 35.4761 53.148 32.9391 61.161 33.3171V32.4171C61.161 23.9184 61.161 15.4184 61.161 6.91708C61.161 5.00108 60.447 4.27708 58.556 4.27608C55.3413 4.27608 52.1267 4.27608 48.912 4.27608H43.86V24.6701C43.86 24.9161 43.866 25.1621 43.86 25.4081C43.8879 25.726 43.8222 26.0452 43.6709 26.3262C43.5196 26.6073 43.2893 26.8378 43.0085 26.9896C42.7277 27.1413 42.4086 27.2075 42.0906 27.1801C41.7726 27.1526 41.4696 27.0327 41.219 26.8351C38.4417 25.1477 35.675 23.4407 32.919 21.7141C32.7242 21.5552 32.4811 21.4674 32.2298 21.465C31.9784 21.4627 31.7338 21.5459 31.536 21.7011C28.857 23.3911 26.144 25.0271 23.454 26.7011C23.1733 26.9428 22.8274 27.0961 22.4598 27.1419C22.0923 27.1876 21.7194 27.1237 21.388 26.9581C21.0774 26.7561 20.8317 26.4686 20.6805 26.1303C20.5294 25.792 20.4792 25.4172 20.536 25.0511C20.5447 18.4924 20.5447 11.9337 20.536 5.37508V4.32708C20.182 4.31008 19.893 4.28308 19.603 4.28308C15.0377 4.28308 10.471 4.28308 5.903 4.28308C3.933 4.28308 3.271 4.96108 3.271 6.96308C3.271 13.1391 3.271 19.3151 3.271 25.4911C3.271 26.6851 2.639 27.4451 1.659 27.4621C1.3062 27.4401 0.965848 27.3234 0.673859 27.1242C0.38187 26.9249 0.149065 26.6506 0 26.3301L0 5.33608C0.0556532 5.28035 0.102219 5.21624 0.138 5.14608C0.40954 3.90215 1.12078 2.79795 2.14107 2.03632C3.16136 1.27468 4.4222 0.906737 5.692 1.00008C23.3807 1.00008 41.0693 1.00008 58.758 1.00008C59.3037 0.989302 59.8489 1.04301 60.382 1.16008C61.6013 1.46236 62.6757 2.18321 63.4177 3.19683C64.1597 4.21045 64.5223 5.45245 64.442 6.70608C64.448 15.4247 64.448 24.1434 64.442 32.8621V33.8021C64.778 33.8931 65.016 33.9541 65.253 34.0211C74.6597 36.7004 80.6677 42.7507 83.277 52.1721C83.624 53.4241 83.764 54.7341 84 56.0171V59.9531C83.9387 60.1876 83.89 60.4253 83.854 60.6651C83.2393 66.3355 80.6938 71.6221 76.6442 75.6386C72.5946 79.655 67.2872 82.157 61.612 82.7251C60.826 82.7981 60.042 82.8351 59.266 82.8351C54.13 82.8418 49.1186 81.2538 44.9238 78.2903C40.729 75.3269 37.5578 71.1341 35.848 66.2911ZM59.189 36.5541C53.4836 36.5565 48.0129 38.8249 43.9798 42.8604C39.9468 46.896 37.6818 52.3682 37.683 58.0736C37.6842 63.7789 39.9515 69.2502 43.9862 73.2841C48.0209 77.3179 53.4926 79.5841 59.198 79.5841C64.9034 79.5841 70.3751 77.3179 74.4098 73.2841C78.4445 69.2502 80.7118 63.7789 80.713 58.0736C80.7142 52.3682 78.4492 46.896 74.4162 42.8604C70.3831 38.8249 64.9124 36.5565 59.207 36.5541H59.189ZM23.868 22.5461C24.173 22.3741 24.407 22.2521 24.631 22.1151C26.725 20.8311 28.838 19.5771 30.901 18.2431C31.281 17.9541 31.7455 17.7981 32.2228 17.799C32.7002 17.7999 33.1641 17.9577 33.543 18.2481C35.588 19.5581 37.673 20.8051 39.743 22.0761C39.98 22.2211 40.225 22.3531 40.534 22.5301V4.33908H23.868V22.5461ZM47.649 69.4931C46.477 69.4931 45.783 68.8931 45.764 67.9081C45.7595 67.6672 45.8072 67.4282 45.9037 67.2075C46.0003 66.9868 46.1434 66.7895 46.3233 66.6293C46.5032 66.4691 46.7156 66.3496 46.946 66.2792C47.1764 66.2087 47.4193 66.1889 47.658 66.2211C52.25 66.2091 56.841 66.1961 61.433 66.2271C63.0503 66.32 64.6584 65.9276 66.051 65.1001C67.3273 64.2869 68.315 63.0922 68.8736 61.6857C69.4323 60.2792 69.5335 58.7324 69.163 57.2651C68.8031 55.7933 67.9793 54.4764 66.8133 53.509C65.6472 52.5416 64.2009 51.9751 62.688 51.8931C61.232 51.8261 59.773 51.8361 58.313 51.8471C57.695 51.8471 57.076 51.8561 56.458 51.8541C56.2971 51.8743 56.1377 51.9054 55.981 51.9471C57.003 52.9471 57.929 53.8221 58.814 54.7351C59.0896 54.9881 59.2669 55.3304 59.3146 55.7014C59.3624 56.0725 59.2775 56.4485 59.075 56.7631C58.9078 57.0666 58.6415 57.3035 58.3207 57.4344C57.9998 57.5653 57.6438 57.5821 57.312 57.4821C56.9733 57.3843 56.6655 57.2011 56.418 56.9501C54.5667 55.1301 52.729 53.2967 50.905 51.4501C50.7165 51.2971 50.5649 51.1035 50.4614 50.8839C50.358 50.6642 50.3053 50.4241 50.3074 50.1813C50.3096 49.9385 50.3664 49.6993 50.4736 49.4815C50.5809 49.2636 50.7358 49.0728 50.927 48.9231C52.7517 47.0764 54.589 45.2431 56.439 43.4231C56.5873 43.2545 56.7688 43.1182 56.972 43.0226C57.1752 42.9271 57.3959 42.8744 57.6204 42.8677C57.8449 42.8611 58.0683 42.9007 58.2768 42.984C58.4854 43.0674 58.6745 43.1927 58.8326 43.3523C58.9906 43.5118 59.1141 43.7022 59.1955 43.9115C59.2769 44.1208 59.3143 44.3446 59.3056 44.569C59.2968 44.7934 59.242 45.0136 59.1445 45.2159C59.047 45.4182 58.909 45.5984 58.739 45.7451C57.866 46.6341 56.958 47.4881 56.065 48.3581L56.165 48.5701C56.591 48.5701 57.018 48.5591 57.445 48.5701C58.15 48.5911 58.86 48.5891 59.57 48.5861C61.1536 48.5353 62.7386 48.6189 64.308 48.8361C66.8216 49.3435 69.0601 50.7595 70.5953 52.8135C72.1306 54.8674 72.855 57.4152 72.63 59.9696C72.405 62.5241 71.2464 64.9059 69.3758 66.6599C67.5051 68.4139 65.0536 69.4169 62.49 69.4771C60.454 69.5041 58.418 69.5121 56.382 69.5121C53.471 69.5121 50.56 69.5001 47.649 69.4931ZM24.937 56.8931C24.561 56.8931 24.185 56.8931 23.81 56.8931C22.1973 56.8931 20.585 56.8931 18.973 56.8931H16.313C14.276 56.8931 12.239 56.8931 10.202 56.8841C9.94216 56.9104 9.67983 56.8727 9.43791 56.7743C9.196 56.6758 8.98185 56.5197 8.81417 56.3195C8.64649 56.1192 8.53037 55.881 8.47596 55.6256C8.42154 55.3701 8.43048 55.1053 8.502 54.8541C8.56669 54.5432 8.72893 54.2611 8.9651 54.0489C9.20126 53.8366 9.49902 53.7053 9.815 53.6741C10.2761 53.623 10.7402 53.603 11.204 53.6141C16.5053 53.6101 21.8053 53.6101 27.104 53.6141C27.4588 53.6038 27.8138 53.6246 28.165 53.6761C28.5613 53.7338 28.9213 53.9388 29.1732 54.2502C29.4251 54.5616 29.5503 54.9564 29.524 55.3561C29.5132 55.7577 29.3475 56.1395 29.0616 56.4217C28.7757 56.7039 28.3917 56.8645 27.99 56.8701C27.301 56.8911 26.612 56.8961 25.922 56.8961L24.937 56.8931ZM18.207 49.1201C17.9755 49.1495 17.7404 49.1306 17.5165 49.0645C17.2926 48.9985 17.0849 48.8868 16.9064 48.7365C16.7278 48.5861 16.5824 48.4004 16.4792 48.1911C16.3761 47.9817 16.3174 47.7532 16.307 47.5201C16.281 46.5331 17.042 45.8511 18.207 45.8441C19.764 45.8351 21.321 45.8441 22.878 45.8441C24.462 45.8441 26.047 45.8371 27.632 45.8441C28.806 45.8511 29.55 46.5241 29.524 47.5241C29.5164 47.7582 29.4597 47.9881 29.3574 48.1989C29.2552 48.4097 29.1098 48.5966 28.9306 48.7475C28.7514 48.8984 28.5425 49.0099 28.3174 49.0748C28.0922 49.1397 27.856 49.1565 27.624 49.1241C26.0533 49.1241 24.4823 49.1241 22.911 49.1241C21.3397 49.1241 19.771 49.1227 18.207 49.1201ZM10.715 49.1201C9.228 49.1201 8.441 48.5621 8.43 47.4951C8.419 46.4281 9.215 45.8431 10.688 45.8421C10.907 45.8421 11.126 45.8361 11.344 45.8481C11.7776 45.8445 12.1949 46.0133 12.5041 46.3174C12.8132 46.6215 12.9889 47.0359 12.9925 47.4696C12.9961 47.9032 12.8273 48.3205 12.5232 48.6297C12.2191 48.9388 11.8046 49.1145 11.371 49.1181C11.29 49.1181 11.209 49.1241 11.129 49.1241C10.991 49.1251 10.853 49.1201 10.715 49.1201ZM0.381 34.2211C0.244 34.0601 0.126 33.8811 0 33.7111V32.7271C0.398138 32.2832 0.867175 31.9084 1.388 31.6181C1.7618 31.5185 2.15986 31.5712 2.49486 31.7646C2.82986 31.9581 3.07445 32.2765 3.175 32.6501C3.3055 33.0117 3.30356 33.4079 3.16952 33.7682C3.03548 34.1286 2.77803 34.4297 2.44292 34.6181C2.1078 34.8065 1.71674 34.8701 1.33922 34.7974C0.961696 34.7247 0.622178 34.5205 0.381 34.2211Z" fill="white"/>
</svg>
