<svg width="71" height="78" viewBox="0 0 71 78" fill="none" xmlns="http://www.w3.org/2000/svg">
<path d="M36.7215 77.1851C35.0874 76.9006 33.5358 76.2605 32.1765 75.3101C30.5607 74.1337 29.3636 72.4713 28.7599 70.566C28.1563 68.6607 28.1779 66.6123 28.8215 64.7201C29.4733 62.8222 30.7126 61.1811 32.3597 60.0348C34.0068 58.8885 35.9761 58.2964 37.9823 58.3445C39.9884 58.3925 41.9271 59.0781 43.5175 60.3019C45.1078 61.5257 46.2672 63.2241 46.8275 65.1511C46.8905 65.3681 46.9525 65.5851 47.0145 65.8011C50.6085 66.5201 57.1465 63.2621 59.2735 59.6011C58.6155 59.6011 58.0315 59.6081 57.4495 59.6011C57.1724 59.6335 56.8916 59.6022 56.6286 59.5094C56.3655 59.4166 56.1271 59.2648 55.9318 59.0657C55.7364 58.8666 55.5892 58.6254 55.5015 58.3606C55.4137 58.0958 55.3877 57.8144 55.4255 57.5381C55.4255 49.8501 55.4291 42.1624 55.4365 34.4751C55.4412 33.9755 55.5336 33.4807 55.7095 33.0131C55.8136 32.6722 56.0321 32.3778 56.3282 32.1794C56.6242 31.981 56.9797 31.8908 57.3345 31.9241C57.9345 31.9491 58.5345 31.9241 59.0805 31.9241C59.1545 31.8091 59.2025 31.7701 59.2045 31.7241C59.4915 26.0081 59.1685 20.3931 56.0125 15.3681C51.0005 7.39906 43.7685 3.38506 34.3395 3.93006C28.9315 4.21975 23.7976 6.40191 19.8361 10.0947C15.8746 13.7875 13.3377 18.7557 12.6695 24.1301C12.3375 26.6551 12.4485 29.2391 12.3515 31.9211C13.0515 31.9211 13.6125 31.9211 14.1785 31.9211C14.4297 31.8983 14.6829 31.9271 14.9226 32.0055C15.1624 32.0839 15.3836 32.2103 15.5728 32.3771C15.7621 32.5439 15.9153 32.7475 16.0232 32.9754C16.1311 33.2034 16.1915 33.451 16.2005 33.7031C16.2378 34.0527 16.2512 34.4046 16.2405 34.7561C16.2405 42.3181 16.2405 49.8801 16.2405 57.4421C16.2405 58.9641 15.6205 59.5971 14.0955 59.5981C11.7585 59.5981 9.41848 59.6601 7.08648 59.5591C5.24465 59.4867 3.49814 58.7212 2.19662 57.416C0.8951 56.1108 0.134635 54.3621 0.0674809 52.5201C-0.0325191 48.1261 -0.0145191 43.7271 0.0764809 39.3321C0.125261 37.323 0.968491 35.4153 2.42138 34.0269C3.87427 32.6385 5.81831 31.8827 7.82748 31.9251C8.04948 31.9341 8.27248 31.9251 8.62748 31.9251C8.62748 31.5521 8.62748 31.2371 8.62748 30.9251C8.49249 27.988 8.6533 25.0449 9.10748 22.1401C11.1005 12.7161 16.4605 5.91206 25.3005 2.16706C28.7848 0.683685 32.5411 -0.0534877 36.3276 0.00301947C40.1141 0.0595266 43.8467 0.908461 47.2852 2.49515C50.7237 4.08184 53.7917 6.3711 56.2917 9.2155C58.7917 12.0599 60.6682 15.3964 61.8005 19.0101C62.7251 21.9888 63.1598 25.098 63.0875 28.2161C63.0755 29.4161 63.0875 30.6161 63.0875 31.8911C64.5423 31.8829 65.9553 32.3774 67.0875 33.2911C68.1488 34.1079 69.0168 35.149 69.6294 36.34C70.242 37.531 70.5842 38.8426 70.6315 40.1811C70.7765 44.4721 70.7475 48.7721 70.6725 53.0661C70.7076 54.5578 70.1879 56.0095 69.2139 57.14C68.2399 58.2705 66.881 58.9992 65.4005 59.1851C64.9183 59.2491 64.458 59.4256 64.0567 59.7004C63.6554 59.9752 63.3244 60.3406 63.0905 60.7671C61.7386 62.9689 59.9402 64.8629 57.8113 66.327C55.6824 67.791 53.2703 68.7926 50.7305 69.2671C49.5305 69.5111 48.2985 69.5821 47.0195 69.7401C46.7766 71.1343 46.1943 72.4474 45.3241 73.5635C44.4539 74.6796 43.3224 75.5645 42.0295 76.1401C40.9878 76.56 39.9186 76.9085 38.8295 77.1831L36.7215 77.1851ZM12.3895 55.7751V35.7331H7.98048C7.43977 35.6966 6.89744 35.7743 6.38871 35.9611C5.87998 36.1479 5.41623 36.4396 5.0276 36.8173C4.63896 37.195 4.33411 37.6503 4.13287 38.1534C3.93162 38.6566 3.83848 39.1965 3.85948 39.7381C3.82048 43.9041 3.82748 48.0701 3.85948 52.2381C3.87719 53.1406 4.23333 54.0036 4.85733 54.6559C5.48132 55.3082 6.32761 55.7023 7.22848 55.7601C8.92848 55.8351 10.6355 55.7761 12.3935 55.7761M59.3005 35.7401V55.7611C60.8595 55.7611 62.3695 55.8431 63.8665 55.7411C65.7745 55.6101 66.8665 54.5471 66.8775 52.9211C66.8985 48.8301 66.9105 44.7391 66.8685 40.6481C66.8742 39.9161 66.7315 39.1907 66.4491 38.5154C66.1667 37.8401 65.7505 37.2291 65.2255 36.7191C64.7343 36.2279 64.103 35.9009 63.4185 35.7831C62.0478 35.6974 60.6726 35.6831 59.3005 35.7401ZM43.3785 67.8951C43.4028 67.1488 43.2785 66.4052 43.0127 65.7075C42.7468 65.0098 42.3448 64.372 41.83 63.8312C41.3153 63.2904 40.6981 62.8574 40.0143 62.5575C39.3306 62.2575 38.594 62.0966 37.8475 62.0842C37.101 62.0717 36.3594 62.2079 35.666 62.4848C34.9727 62.7617 34.3413 63.1739 33.8088 63.6972C33.2763 64.2205 32.8532 64.8445 32.5642 65.533C32.2752 66.2214 32.1261 66.9604 32.1255 67.7071C32.1707 69.2169 32.7992 70.6504 33.8791 71.7066C34.9589 72.7627 36.4061 73.3593 37.9165 73.3711C39.3621 73.3541 40.7435 72.7714 41.7645 71.748C42.7856 70.7245 43.365 69.3407 43.3785 67.8951Z" fill="white"/>
</svg>
