<svg width="19" height="21" viewBox="0 0 19 21" fill="none" xmlns="http://www.w3.org/2000/svg">
<path d="M17.8302 19.753V17.669C17.8302 17.1215 17.7223 16.5794 17.5127 16.0737C17.3031 15.5679 16.9959 15.1084 16.6086 14.7214C16.2214 14.3345 15.7616 14.0276 15.2557 13.8183C14.7498 13.6091 14.2076 13.5016 13.6602 13.502H5.32716C4.77994 13.502 4.23808 13.6098 3.73251 13.8192C3.22695 14.0286 2.76758 14.3356 2.38064 14.7225C1.9937 15.1094 1.68676 15.5688 1.47735 16.0744C1.26794 16.5799 1.16016 17.1218 1.16016 17.669V19.753" stroke="#44117C" stroke-width="2" stroke-linecap="round" stroke-linejoin="round"/>
<path d="M13.6621 5.167C13.6621 5.99111 13.4178 6.79672 12.9599 7.48196C12.5021 8.1672 11.8514 8.70129 11.09 9.01671C10.3286 9.33213 9.49084 9.41471 8.68255 9.25401C7.87426 9.0933 7.13177 8.69653 6.54897 8.11387C5.96616 7.5312 5.56921 6.78881 5.40832 5.98055C5.24742 5.1723 5.3298 4.33449 5.64503 3.57305C5.96027 2.81161 6.49421 2.16075 7.17934 1.70275C7.86447 1.24476 8.67001 1.0002 9.49413 1C10.0414 0.999869 10.5834 1.10755 11.0891 1.31691C11.5948 1.52626 12.0542 1.83318 12.4413 2.22013C12.8283 2.60709 13.1354 3.0665 13.3448 3.57213C13.5543 4.07776 13.6621 4.6197 13.6621 5.167Z" stroke="#44117C" stroke-width="2" stroke-linecap="round" stroke-linejoin="round"/>
</svg>
